<?xml version="1.0" encoding="us-ascii" standalone="no"?><svg xmlns="http://www.w3.org/2000/svg" xmlns:xlink="http://www.w3.org/1999/xlink" contentStyleType="text/css" height="507px" preserveAspectRatio="none" style="width:723px;height:507px;background:#FFFFFF;" version="1.1" viewBox="0 0 723 507" width="723px" zoomAndPan="magnify"><defs/><g><text fill="#000000" font-family="Pretendard" font-size="14" font-weight="bold" lengthAdjust="spacing" textLength="301" x="207" y="28.3301">Static &#48176;&#44221; &#51060;&#48120;&#51648; &#49373;&#49457; Phase (&#49884;&#45208;&#47532;&#50724; &#46321;&#47197; &#49884; 1&#54924;)</text><rect fill="#FFFFFF" height="184.5957" style="stroke:#D0D0D0;stroke-width:1.0;" width="10" x="316" y="223.9551"/><rect fill="#FFFFFF" height="29.5137" style="stroke:#D0D0D0;stroke-width:1.0;" width="10" x="457" y="253.4688"/><line style="stroke:#D0D0D0;stroke-width:0.5;stroke-dasharray:5.0,5.0;" x1="23" x2="23" y1="119.4141" y2="426.5508"/><line style="stroke:#D0D0D0;stroke-width:0.5;stroke-dasharray:5.0,5.0;" x1="152" x2="152" y1="119.4141" y2="426.5508"/><line style="stroke:#D0D0D0;stroke-width:0.5;stroke-dasharray:5.0,5.0;" x1="321" x2="321" y1="119.4141" y2="426.5508"/><line style="stroke:#D0D0D0;stroke-width:0.5;stroke-dasharray:5.0,5.0;" x1="462" x2="462" y1="119.4141" y2="426.5508"/><line style="stroke:#D0D0D0;stroke-width:0.5;stroke-dasharray:5.0,5.0;" x1="565" x2="565" y1="119.4141" y2="426.5508"/><text fill="#000000" font-family="Pretendard" font-size="14" lengthAdjust="spacing" textLength="30" x="5" y="116.0371">User</text><ellipse cx="23" cy="51.207" fill="#FFFFFF" rx="8" ry="8" style="stroke:#000000;stroke-width:0.5;"/><path d="M23,59.207 L23,86.207 M10,67.207 L36,67.207 M23,86.207 L10,101.207 M23,86.207 L36,101.207 " fill="none" style="stroke:#000000;stroke-width:0.5;"/><text fill="#000000" font-family="Pretendard" font-size="14" lengthAdjust="spacing" textLength="30" x="5" y="438.8809">User</text><ellipse cx="23" cy="450.7578" fill="#FFFFFF" rx="8" ry="8" style="stroke:#000000;stroke-width:0.5;"/><path d="M23,458.7578 L23,485.7578 M10,466.7578 L36,466.7578 M23,485.7578 L10,500.7578 M23,485.7578 L36,500.7578 " fill="none" style="stroke:#000000;stroke-width:0.5;"/><rect fill="#FFFFFF" height="47.4141" rx="2.5" ry="2.5" style="stroke:#000000;stroke-width:0.5;" width="78" x="113" y="71"/><text fill="#000000" font-family="Pretendard" font-size="14" lengthAdjust="spacing" textLength="64" x="120" y="91.3301">Front-End</text><text fill="#000000" font-family="Pretendard" font-size="14" lengthAdjust="spacing" textLength="46" x="129" y="108.0371">(React)</text><rect fill="#FFFFFF" height="47.4141" rx="2.5" ry="2.5" style="stroke:#000000;stroke-width:0.5;" width="78" x="113" y="425.5508"/><text fill="#000000" font-family="Pretendard" font-size="14" lengthAdjust="spacing" textLength="64" x="120" y="445.8809">Front-End</text><text fill="#000000" font-family="Pretendard" font-size="14" lengthAdjust="spacing" textLength="46" x="129" y="462.5879">(React)</text><rect fill="#FFFFFF" height="47.4141" rx="2.5" ry="2.5" style="stroke:#000000;stroke-width:0.5;" width="142" x="250" y="71"/><text fill="#000000" font-family="Pretendard" font-size="14" lengthAdjust="spacing" textLength="60" x="291" y="91.3301">Back-End</text><text fill="#000000" font-family="Pretendard" font-size="14" lengthAdjust="spacing" textLength="128" x="257" y="108.0371">(FastAPI, MongoDB)</text><rect fill="#FFFFFF" height="47.4141" rx="2.5" ry="2.5" style="stroke:#000000;stroke-width:0.5;" width="142" x="250" y="425.5508"/><text fill="#000000" font-family="Pretendard" font-size="14" lengthAdjust="spacing" textLength="60" x="291" y="445.8809">Back-End</text><text fill="#000000" font-family="Pretendard" font-size="14" lengthAdjust="spacing" textLength="128" x="257" y="462.5879">(FastAPI, MongoDB)</text><rect fill="#FFFFFF" height="47.4141" rx="2.5" ry="2.5" style="stroke:#000000;stroke-width:0.5;" width="120" x="402" y="71"/><text fill="#000000" font-family="Pretendard" font-size="14" lengthAdjust="spacing" textLength="62" x="431" y="91.3301">Image API</text><text fill="#000000" font-family="Pretendard" font-size="14" lengthAdjust="spacing" textLength="106" x="409" y="108.0371">(NAI / DALL&#183;E &#46321;)</text><rect fill="#FFFFFF" height="47.4141" rx="2.5" ry="2.5" style="stroke:#000000;stroke-width:0.5;" width="120" x="402" y="425.5508"/><text fill="#000000" font-family="Pretendard" font-size="14" lengthAdjust="spacing" textLength="62" x="431" y="445.8809">Image API</text><text fill="#000000" font-family="Pretendard" font-size="14" lengthAdjust="spacing" textLength="106" x="409" y="462.5879">(NAI / DALL&#183;E &#46321;)</text><text fill="#000000" font-family="Pretendard" font-size="14" lengthAdjust="spacing" textLength="61" x="532" y="116.0371">Image DB</text><path d="M547.5,66.707 C547.5,56.707 565.5,56.707 565.5,56.707 C565.5,56.707 583.5,56.707 583.5,66.707 L583.5,92.707 C583.5,102.707 565.5,102.707 565.5,102.707 C565.5,102.707 547.5,102.707 547.5,92.707 L547.5,66.707 " fill="#E3E3E3" style="stroke:#181818;stroke-width:1.5;"/><path d="M547.5,66.707 C547.5,76.707 565.5,76.707 565.5,76.707 C565.5,76.707 583.5,76.707 583.5,66.707 " fill="none" style="stroke:#181818;stroke-width:1.5;"/><text fill="#000000" font-family="Pretendard" font-size="14" lengthAdjust="spacing" textLength="61" x="532" y="438.8809">Image DB</text><path d="M547.5,452.2578 C547.5,442.2578 565.5,442.2578 565.5,442.2578 C565.5,442.2578 583.5,442.2578 583.5,452.2578 L583.5,478.2578 C583.5,488.2578 565.5,488.2578 565.5,488.2578 C565.5,488.2578 547.5,488.2578 547.5,478.2578 L547.5,452.2578 " fill="#E3E3E3" style="stroke:#181818;stroke-width:1.5;"/><path d="M547.5,452.2578 C547.5,462.2578 565.5,462.2578 565.5,462.2578 C565.5,462.2578 583.5,462.2578 583.5,452.2578 " fill="none" style="stroke:#181818;stroke-width:1.5;"/><rect fill="#FFFFFF" height="184.5957" style="stroke:#D0D0D0;stroke-width:1.0;" width="10" x="316" y="223.9551"/><rect fill="#FFFFFF" height="29.5137" style="stroke:#D0D0D0;stroke-width:1.0;" width="10" x="457" y="253.4688"/><rect fill="#EEEEEE" height="3" style="stroke:#EEEEEE;stroke-width:1.0;" width="716" x="0" y="150.1709"/><line style="stroke:#000000;stroke-width:1.0;" x1="0" x2="716" y1="150.1709" y2="150.1709"/><line style="stroke:#000000;stroke-width:1.0;" x1="0" x2="716" y1="153.1709" y2="153.1709"/><rect fill="#EEEEEE" height="23.5137" style="stroke:#000000;stroke-width:2.0;" width="294" x="211" y="139.4141"/><text fill="#000000" font-family="Pretendard" font-size="13" font-weight="bold" lengthAdjust="spacing" textLength="277" x="217" y="155.792">Static &#48176;&#44221; &#51060;&#48120;&#51648; &#49373;&#49457; Phase (&#49884;&#45208;&#47532;&#50724; &#46321;&#47197; &#49884; 1&#54924;)</text><polygon fill="#000000" points="140,190.4414,150,194.4414,140,198.4414,144,194.4414" style="stroke:#000000;stroke-width:1.0;"/><line style="stroke:#000000;stroke-width:1.0;" x1="23" x2="146" y1="194.4414" y2="194.4414"/><text fill="#000000" font-family="Pretendard" font-size="13" lengthAdjust="spacing" textLength="105" x="35" y="189.3057">&#49884;&#45208;&#47532;&#50724; &#54028;&#51068; &#50629;&#47196;&#46300;</text><polygon fill="#000000" points="304,219.9551,314,223.9551,304,227.9551,308,223.9551" style="stroke:#000000;stroke-width:1.0;"/><line style="stroke:#000000;stroke-width:1.0;" x1="152" x2="310" y1="223.9551" y2="223.9551"/><text fill="#000000" font-family="Pretendard" font-size="13" lengthAdjust="spacing" textLength="47" x="210.5" y="218.8193">&#54028;&#51068; &#51204;&#49569;</text><polygon fill="#000000" points="445,249.4688,455,253.4688,445,257.4688,449,253.4688" style="stroke:#000000;stroke-width:1.0;"/><line style="stroke:#000000;stroke-width:1.0;" x1="326" x2="451" y1="253.4688" y2="253.4688"/><text fill="#000000" font-family="Pretendard" font-size="13" lengthAdjust="spacing" textLength="94" x="344.5" y="248.333">&#48176;&#44221; &#54532;&#47212;&#54532;&#53944; &#51204;&#49569;</text><polygon fill="#000000" points="337,278.9824,327,282.9824,337,286.9824,333,282.9824" style="stroke:#000000;stroke-width:1.0;"/><line style="stroke:#000000;stroke-width:1.0;stroke-dasharray:2.0,2.0;" x1="331" x2="461" y1="282.9824" y2="282.9824"/><text fill="#000000" font-family="Pretendard" font-size="13" lengthAdjust="spacing" textLength="76" x="356" y="277.8467">&#48176;&#44221; .png &#48152;&#54872;</text><polygon fill="#000000" points="553.5,308.4961,563.5,312.4961,553.5,316.4961,557.5,312.4961" style="stroke:#000000;stroke-width:1.0;"/><line style="stroke:#000000;stroke-width:1.0;" x1="326" x2="559.5" y1="312.4961" y2="312.4961"/><text fill="#000000" font-family="Pretendard" font-size="13" lengthAdjust="spacing" textLength="128" x="381.75" y="307.3604">&#44277;&#44036;&#48324;(&#45230;/&#48164;) &#51060;&#48120;&#51648; &#51200;&#51109;</text><path d="M570,325.4961 L570,381.4961 L711,381.4961 L711,335.4961 L701,325.4961 L570,325.4961 " fill="#FAFAFA" style="stroke:#181818;stroke-width:0.5;"/><path d="M701,325.4961 L701,335.4961 L711,335.4961 L701,325.4961 " fill="#FAFAFA" style="stroke:#181818;stroke-width:0.5;"/><text fill="#000000" font-family="Pretendard" font-size="13" lengthAdjust="spacing" textLength="58" x="611.5" y="342.874">&#49464;&#49496; &#51473;&#50640;&#45716;</text><text fill="#000000" font-family="Pretendard" font-size="13" lengthAdjust="spacing" textLength="105" x="588" y="358.3877">&#54596;&#50836;&#54620; &#48176;&#44221; &#51060;&#48120;&#51648;&#47484;</text><text fill="#000000" font-family="Pretendard" font-size="13" lengthAdjust="spacing" textLength="111" x="585" y="373.9014">DB&#50640;&#49436; &#48520;&#47084;&#50724;&#44592;&#47564; &#54632;</text><polygon fill="#000000" points="163,404.5508,153,408.5508,163,412.5508,159,408.5508" style="stroke:#000000;stroke-width:1.0;"/><line style="stroke:#000000;stroke-width:1.0;stroke-dasharray:2.0,2.0;" x1="157" x2="320" y1="408.5508" y2="408.5508"/><text fill="#000000" font-family="Pretendard" font-size="13" lengthAdjust="spacing" textLength="140" x="166.5" y="403.415">&#50629;&#47196;&#46300; &#50756;&#47308; / &#48176;&#44221; &#49373;&#49457; &#50756;&#47308;</text><!--SRC=[hPDFJnD16CRlyodUr0ia8dergSckfKcJIXgLcvUXEsqtj3DrTYecneJWOWpqe0528QtI2EA1Q17_z80NFqvdzZluJhVLXKAyc4tcCC_lVUPzdvbLlgeoUA2eyekWUxt1bvzWEb_rvxuvMW7pecF24oXKQC1WocoqzMfBVpWshGFGcoUwsm7SWrlHNdEQa639vtKgQGrgWejYHOeQ0oKRBA445Ug9PP-NeKIhGL9PfCMbiXGDxjqLLI5XkUAhfEwn4crKLLPmDK_HE5MGJ37kKUcb9h67xAbogdwPrnXNKCI5oMI70NlSOBp8u1a1SAGKo_6fYrLi0xVoVedbVSvS8JqcO-sQTzD-IVNIdW4AL6ASVfrobJGOcoVbVplOYS_NEqKbv6N6iN25vL2SD9iNYbtcDTo_mifg5vsU4qBj2R0GC0aqW0LI_pi4fB8I2sRckFU8JzrdY4wdB9MTEu_P8qTKbWRAAUIkmpt1ooBZnWNkXO9SZPOP88SLyquEPY7ZvFE_VipP5ngNv1pYKKKNxICUyHbtg6HSGjBf__7y8PqcP05cxk14S1lEiL6pQJfdO7RMTBUjDzi44GHT2uwr_T2yxDe4_ITKCJibSOTKpa5gr5cq5UhkCQxHUd-Y1AT4TcPiF2gvKST_JVTQqMwBU2m9Z_mpBiA3qs-3NgXFmocz-cbMzmwcaodihvYtXuJZfOFqonK5ecIJCs7VhBN07BmnEw_r-XQ9jaEpjnLjjoUIr8Td9ECYPa8Klx_IxsmmWtvF7pKXslv8y4S6Uq3SrPyKnuc1sGtr-oPUxjWvlfbuEpaO1lSR]--></g></svg>