<?xml version="1.0" encoding="us-ascii" standalone="no"?><svg xmlns="http://www.w3.org/2000/svg" xmlns:xlink="http://www.w3.org/1999/xlink" contentStyleType="text/css" height="1112px" preserveAspectRatio="none" style="width:276px;height:1112px;background:#FFFFFF;" version="1.1" viewBox="0 0 276 1112" width="276px" zoomAndPan="magnify"><defs/><g><text fill="#000000" font-family="sans-serif" font-size="14" font-weight="bold" lengthAdjust="spacing" textLength="233" x="20" y="33.5352">AI-GM Session Activity Diagram</text><ellipse cx="116.5" cy="57.4883" fill="#222222" rx="10" ry="10" style="stroke:#222222;stroke-width:1.0;"/><rect fill="#F1F1F1" height="34.1328" rx="12.5" ry="12.5" style="stroke:#181818;stroke-width:0.5;" width="94" x="69.5" y="87.4883"/><text fill="#000000" font-family="sans-serif" font-size="12" lengthAdjust="spacing" textLength="74" x="79.5" y="109.0898">&#49884;&#45208;&#47532;&#50724; &#50629;&#47196;&#46300;</text><rect fill="#F1F1F1" height="34.1328" rx="12.5" ry="12.5" style="stroke:#181818;stroke-width:0.5;" width="118" x="57.5" y="141.6211"/><text fill="#000000" font-family="sans-serif" font-size="12" lengthAdjust="spacing" textLength="98" x="67.5" y="163.2227">scene_public &#54028;&#49905;</text><rect fill="#F1F1F1" height="34.1328" rx="12.5" ry="12.5" style="stroke:#181818;stroke-width:0.5;" width="120" x="56.5" y="195.7539"/><text fill="#000000" font-family="sans-serif" font-size="12" lengthAdjust="spacing" textLength="100" x="66.5" y="217.3555">KPC / PC &#51221;&#48372; &#47196;&#46300;</text><rect fill="#F1F1F1" height="34.1328" rx="12.5" ry="12.5" style="stroke:#181818;stroke-width:0.5;" width="118" x="57.5" y="249.8867"/><text fill="#000000" font-family="sans-serif" font-size="12" lengthAdjust="spacing" textLength="98" x="67.5" y="271.4883">&#49884;&#49828;&#53596; &#54532;&#47212;&#54532;&#53944; &#51312;&#54633;</text><rect fill="#F1F1F1" height="34.1328" rx="12.5" ry="12.5" style="stroke:#181818;stroke-width:0.5;" width="74" x="79.5" y="348.0195"/><text fill="#000000" font-family="sans-serif" font-size="12" lengthAdjust="spacing" textLength="54" x="89.5" y="369.6211">&#49324;&#50857;&#51088; &#51077;&#47141;</text><rect fill="#F1F1F1" height="34.1328" rx="12.5" ry="12.5" style="stroke:#181818;stroke-width:0.5;" width="90" x="71.5" y="402.1523"/><text fill="#000000" font-family="sans-serif" font-size="12" lengthAdjust="spacing" textLength="70" x="81.5" y="423.7539">LLM &#51025;&#45813; &#49373;&#49457;</text><rect fill="#F1F1F1" height="34.1328" rx="12.5" ry="12.5" style="stroke:#181818;stroke-width:0.5;" width="88" x="72.5" y="456.2852"/><text fill="#000000" font-family="sans-serif" font-size="12" lengthAdjust="spacing" textLength="68" x="82.5" y="477.8867">&#52636;&#47141; &#54805;&#49885; &#44160;&#51613;</text><rect fill="#F1F1F1" height="34.1328" rx="12.5" ry="12.5" style="stroke:#181818;stroke-width:0.5;" width="88" x="72.5" y="510.418"/><text fill="#000000" font-family="sans-serif" font-size="12" lengthAdjust="spacing" textLength="68" x="82.5" y="532.0195">&#49464;&#49496; &#49345;&#53468; &#44081;&#49888;</text><rect fill="#F1F1F1" height="34.1328" rx="12.5" ry="12.5" style="stroke:#181818;stroke-width:0.5;" width="93" x="70" y="613.0283"/><text fill="#000000" font-family="sans-serif" font-size="12" lengthAdjust="spacing" textLength="73" x="80" y="634.6299">&#47344;&#48513; RAG &#44160;&#49353;</text><rect fill="#F1F1F1" height="34.1328" rx="12.5" ry="12.5" style="stroke:#181818;stroke-width:0.5;" width="98" x="67.5" y="667.1611"/><text fill="#000000" font-family="sans-serif" font-size="12" lengthAdjust="spacing" textLength="78" x="77.5" y="688.7627">&#49457;&#44277; / &#49892;&#54056; &#49328;&#52636;</text><rect fill="#F1F1F1" height="34.1328" rx="12.5" ry="12.5" style="stroke:#181818;stroke-width:0.5;" width="108" x="62.5" y="721.2939"/><text fill="#000000" font-family="sans-serif" font-size="12" lengthAdjust="spacing" textLength="88" x="72.5" y="742.8955">&#54032;&#51221; &#45236;&#47084;&#54000;&#48652; &#48152;&#50689;</text><polygon fill="#F1F1F1" points="92.5,564.5508,140.5,564.5508,152.5,576.5508,140.5,588.5508,92.5,588.5508,80.5,576.5508,92.5,564.5508" style="stroke:#181818;stroke-width:0.5;"/><text fill="#000000" font-family="sans-serif" font-size="11" lengthAdjust="spacing" textLength="19" x="120.5" y="599.1855">Yes</text><text fill="#000000" font-family="sans-serif" font-size="11" lengthAdjust="spacing" textLength="48" x="92.5" y="580.708">&#54032;&#51221; &#54596;&#50836;?</text><text fill="#000000" font-family="sans-serif" font-size="11" lengthAdjust="spacing" textLength="15" x="152.5" y="574.2305">No</text><polygon fill="#F1F1F1" points="116.5,775.4268,128.5,787.4268,116.5,799.4268,104.5,787.4268,116.5,775.4268" style="stroke:#181818;stroke-width:0.5;"/><rect fill="#F1F1F1" height="34.1328" rx="12.5" ry="12.5" style="stroke:#181818;stroke-width:0.5;" width="98" x="67.5" y="867.9043"/><text fill="#000000" font-family="sans-serif" font-size="12" lengthAdjust="spacing" textLength="78" x="77.5" y="889.5059">&#49465;&#49496; &#51064;&#45937;&#49828; &#51613;&#44032;</text><rect fill="#F1F1F1" height="34.1328" rx="12.5" ry="12.5" style="stroke:#181818;stroke-width:0.5;" width="142" x="45.5" y="937.0371"/><text fill="#000000" font-family="sans-serif" font-size="12" lengthAdjust="spacing" textLength="122" x="55.5" y="958.6387">&#45796;&#51020; scene_public &#47196;&#46300;</text><polygon fill="#F1F1F1" points="69,819.4268,164,819.4268,176,831.4268,164,843.4268,69,843.4268,57,831.4268,69,819.4268" style="stroke:#181818;stroke-width:0.5;"/><text fill="#000000" font-family="sans-serif" font-size="11" lengthAdjust="spacing" textLength="19" x="120.5" y="854.0615">Yes</text><text fill="#000000" font-family="sans-serif" font-size="11" lengthAdjust="spacing" textLength="95" x="69" y="835.584">END OF SECTION?</text><text fill="#000000" font-family="sans-serif" font-size="11" lengthAdjust="spacing" textLength="15" x="176" y="829.1064">No</text><polygon fill="#F1F1F1" points="116.5,991.1699,128.5,1003.1699,116.5,1015.1699,104.5,1003.1699,116.5,991.1699" style="stroke:#181818;stroke-width:0.5;"/><polygon fill="#F1F1F1" points="116.5,304.0195,128.5,316.0195,116.5,328.0195,104.5,316.0195,116.5,304.0195" style="stroke:#181818;stroke-width:0.5;"/><polygon fill="#F1F1F1" points="92.5,1035.1699,140.5,1035.1699,152.5,1047.1699,140.5,1059.1699,92.5,1059.1699,80.5,1047.1699,92.5,1035.1699" style="stroke:#181818;stroke-width:0.5;"/><text fill="#000000" font-family="sans-serif" font-size="11" lengthAdjust="spacing" textLength="48" x="92.5" y="1051.3271">&#49464;&#49496; &#44228;&#49549;?</text><text fill="#000000" font-family="sans-serif" font-size="11" lengthAdjust="spacing" textLength="19" x="152.5" y="1044.8496">Yes</text><ellipse cx="116.5" cy="1090.1699" fill="none" rx="11" ry="11" style="stroke:#222222;stroke-width:1.0;"/><ellipse cx="116.5" cy="1090.1699" fill="#222222" rx="6" ry="6" style="stroke:#222222;stroke-width:1.0;"/><line style="stroke:#181818;stroke-width:1.0;" x1="116.5" x2="116.5" y1="67.4883" y2="87.4883"/><polygon fill="#181818" points="112.5,77.4883,116.5,87.4883,120.5,77.4883,116.5,81.4883" style="stroke:#181818;stroke-width:1.0;"/><line style="stroke:#181818;stroke-width:1.0;" x1="116.5" x2="116.5" y1="121.6211" y2="141.6211"/><polygon fill="#181818" points="112.5,131.6211,116.5,141.6211,120.5,131.6211,116.5,135.6211" style="stroke:#181818;stroke-width:1.0;"/><line style="stroke:#181818;stroke-width:1.0;" x1="116.5" x2="116.5" y1="175.7539" y2="195.7539"/><polygon fill="#181818" points="112.5,185.7539,116.5,195.7539,120.5,185.7539,116.5,189.7539" style="stroke:#181818;stroke-width:1.0;"/><line style="stroke:#181818;stroke-width:1.0;" x1="116.5" x2="116.5" y1="229.8867" y2="249.8867"/><polygon fill="#181818" points="112.5,239.8867,116.5,249.8867,120.5,239.8867,116.5,243.8867" style="stroke:#181818;stroke-width:1.0;"/><line style="stroke:#181818;stroke-width:1.0;" x1="116.5" x2="116.5" y1="382.1523" y2="402.1523"/><polygon fill="#181818" points="112.5,392.1523,116.5,402.1523,120.5,392.1523,116.5,396.1523" style="stroke:#181818;stroke-width:1.0;"/><line style="stroke:#181818;stroke-width:1.0;" x1="116.5" x2="116.5" y1="436.2852" y2="456.2852"/><polygon fill="#181818" points="112.5,446.2852,116.5,456.2852,120.5,446.2852,116.5,450.2852" style="stroke:#181818;stroke-width:1.0;"/><line style="stroke:#181818;stroke-width:1.0;" x1="116.5" x2="116.5" y1="490.418" y2="510.418"/><polygon fill="#181818" points="112.5,500.418,116.5,510.418,120.5,500.418,116.5,504.418" style="stroke:#181818;stroke-width:1.0;"/><line style="stroke:#181818;stroke-width:1.0;" x1="116.5" x2="116.5" y1="647.1611" y2="667.1611"/><polygon fill="#181818" points="112.5,657.1611,116.5,667.1611,120.5,657.1611,116.5,661.1611" style="stroke:#181818;stroke-width:1.0;"/><line style="stroke:#181818;stroke-width:1.0;" x1="116.5" x2="116.5" y1="701.2939" y2="721.2939"/><polygon fill="#181818" points="112.5,711.2939,116.5,721.2939,120.5,711.2939,116.5,715.2939" style="stroke:#181818;stroke-width:1.0;"/><line style="stroke:#181818;stroke-width:1.0;" x1="116.5" x2="116.5" y1="588.5508" y2="613.0283"/><polygon fill="#181818" points="112.5,603.0283,116.5,613.0283,120.5,603.0283,116.5,607.0283" style="stroke:#181818;stroke-width:1.0;"/><line style="stroke:#181818;stroke-width:1.0;" x1="152.5" x2="180.5" y1="576.5508" y2="576.5508"/><polygon fill="#181818" points="176.5,674.2275,180.5,684.2275,184.5,674.2275,180.5,678.2275" style="stroke:#181818;stroke-width:1.0;"/><line style="stroke:#181818;stroke-width:1.0;" x1="180.5" x2="180.5" y1="576.5508" y2="787.4268"/><line style="stroke:#181818;stroke-width:1.0;" x1="180.5" x2="128.5" y1="787.4268" y2="787.4268"/><polygon fill="#181818" points="138.5,783.4268,128.5,787.4268,138.5,791.4268,134.5,787.4268" style="stroke:#181818;stroke-width:1.0;"/><line style="stroke:#181818;stroke-width:1.0;" x1="116.5" x2="116.5" y1="755.4268" y2="775.4268"/><polygon fill="#181818" points="112.5,765.4268,116.5,775.4268,120.5,765.4268,116.5,769.4268" style="stroke:#181818;stroke-width:1.0;"/><line style="stroke:#181818;stroke-width:1.0;" x1="116.5" x2="116.5" y1="544.5508" y2="564.5508"/><polygon fill="#181818" points="112.5,554.5508,116.5,564.5508,120.5,554.5508,116.5,558.5508" style="stroke:#181818;stroke-width:1.0;"/><line style="stroke:#181818;stroke-width:1.0;" x1="116.5" x2="116.5" y1="902.0371" y2="937.0371"/><polygon fill="#181818" points="112.5,927.0371,116.5,937.0371,120.5,927.0371,116.5,931.0371" style="stroke:#181818;stroke-width:1.0;"/><line style="stroke:#181818;stroke-width:1.0;" x1="116.5" x2="116.5" y1="843.4268" y2="867.9043"/><polygon fill="#181818" points="112.5,857.9043,116.5,867.9043,120.5,857.9043,116.5,861.9043" style="stroke:#181818;stroke-width:1.0;"/><line style="stroke:#181818;stroke-width:1.0;" x1="176" x2="197.5" y1="831.4268" y2="831.4268"/><polygon fill="#181818" points="193.5,909.5371,197.5,919.5371,201.5,909.5371,197.5,913.5371" style="stroke:#181818;stroke-width:1.0;"/><line style="stroke:#181818;stroke-width:1.0;" x1="197.5" x2="197.5" y1="831.4268" y2="1003.1699"/><line style="stroke:#181818;stroke-width:1.0;" x1="197.5" x2="128.5" y1="1003.1699" y2="1003.1699"/><polygon fill="#181818" points="138.5,999.1699,128.5,1003.1699,138.5,1007.1699,134.5,1003.1699" style="stroke:#181818;stroke-width:1.0;"/><line style="stroke:#181818;stroke-width:1.0;" x1="116.5" x2="116.5" y1="971.1699" y2="991.1699"/><polygon fill="#181818" points="112.5,981.1699,116.5,991.1699,120.5,981.1699,116.5,985.1699" style="stroke:#181818;stroke-width:1.0;"/><line style="stroke:#181818;stroke-width:1.0;" x1="116.5" x2="116.5" y1="799.4268" y2="819.4268"/><polygon fill="#181818" points="112.5,809.4268,116.5,819.4268,120.5,809.4268,116.5,813.4268" style="stroke:#181818;stroke-width:1.0;"/><line style="stroke:#181818;stroke-width:1.0;" x1="116.5" x2="116.5" y1="328.0195" y2="348.0195"/><polygon fill="#181818" points="112.5,338.0195,116.5,348.0195,120.5,338.0195,116.5,342.0195" style="stroke:#181818;stroke-width:1.0;"/><line style="stroke:#181818;stroke-width:1.0;" x1="152.5" x2="215.5" y1="1047.1699" y2="1047.1699"/><polygon fill="#181818" points="211.5,673.5723,215.5,663.5723,219.5,673.5723,215.5,669.5723" style="stroke:#181818;stroke-width:1.0;"/><line style="stroke:#181818;stroke-width:1.0;" x1="215.5" x2="215.5" y1="316.0195" y2="1047.1699"/><line style="stroke:#181818;stroke-width:1.0;" x1="215.5" x2="128.5" y1="316.0195" y2="316.0195"/><polygon fill="#181818" points="138.5,312.0195,128.5,316.0195,138.5,320.0195,134.5,316.0195" style="stroke:#181818;stroke-width:1.0;"/><line style="stroke:#181818;stroke-width:1.0;" x1="116.5" x2="116.5" y1="1015.1699" y2="1035.1699"/><polygon fill="#181818" points="112.5,1025.1699,116.5,1035.1699,120.5,1025.1699,116.5,1029.1699" style="stroke:#181818;stroke-width:1.0;"/><line style="stroke:#181818;stroke-width:1.0;" x1="116.5" x2="116.5" y1="284.0195" y2="304.0195"/><polygon fill="#181818" points="112.5,294.0195,116.5,304.0195,120.5,294.0195,116.5,298.0195" style="stroke:#181818;stroke-width:1.0;"/><line style="stroke:#181818;stroke-width:1.0;" x1="116.5" x2="116.5" y1="1059.1699" y2="1079.1699"/><polygon fill="#181818" points="112.5,1069.1699,116.5,1079.1699,120.5,1069.1699,116.5,1073.1699" style="stroke:#181818;stroke-width:1.0;"/><!--SRC=[RL9DIm9H5DtFhpXBMqHxNOJqHLGMrQPLcBtgWQauKz4kTGng9YXA6cAcb2mAN8nPONzftdt_eQjEGT3cBiuzxvvpptsMjF82wVdnkIMi2TEKnGBIEKiUIkiOqpAxMyxk6uPfPSkMOIJ9yLNLKyyTyjgWsxfg-UhQJnb9CoSAOhDqi9MNEMZN9QVBwCBA52R0XPeDrNl7Bvtdq7bRrtte6rkrEbprUH_K2dNZDMKOPL4IMSi0abJjqDqhtL-2xkkg-PGQW8kBIw3WIZaVe5f0TdU8qgVF16YlGKw0wEs4deDHm-vJtMDgHTTyH66Nd2QB07872UrUiZleXartDvDZiFP40OaDOOunWH-hnr1zLh2QdXkEh9sbHZYhHhqFNe-SjdPVGDMG3SJDUAYglgk7ZdP2rNUXGe-yoe0WygP08bCSA8Z2jjpvyJAJcSRoBDPcfjRdbpF_c27xQxX9q5SNNKuGl68KdiIgocbJuEBFBNuY_rTr53EEzYJ_WKGSKzIpwVI2nQKPI_FvYwLl]--></g></svg>