<?xml version="1.0" encoding="us-ascii" standalone="no"?><svg xmlns="http://www.w3.org/2000/svg" xmlns:xlink="http://www.w3.org/1999/xlink" contentStyleType="text/css" height="470px" preserveAspectRatio="none" style="width:412px;height:470px;" version="1.1" viewBox="0 0 412 470" width="412px" zoomAndPan="magnify"><defs/><g><!--cluster Better GM Than Yours--><g id="cluster_Better GM Than Yours"><rect fill="none" height="457" rx="2.5" ry="2.5" style="stroke:#181818;stroke-width:1.0;" width="180.31" x="226" y="7"/><text fill="#000000" font-family="sans-serif" font-size="14" font-weight="bold" lengthAdjust="spacing" textLength="159" x="236.655" y="22.5352">Better GM Than Yours</text></g><g id="elem_UC1"><ellipse cx="316.1583" cy="217.998" fill="#FFFFFF" rx="64.5183" ry="26.318" style="stroke:#111111;stroke-width:0.5;"/><text fill="#111111" font-family="sans-serif" font-size="14" lengthAdjust="spacing" textLength="75" x="278.6583" y="213.0448">&#52880;&#47533;&#53552; &#49373;&#49457; /</text><text fill="#111111" font-family="sans-serif" font-size="14" lengthAdjust="spacing" textLength="52" x="290.1583" y="229.5331">&#49828;&#53487; &#51077;&#47141;</text></g><g id="elem_UC2"><ellipse cx="316.1632" cy="57.0029" fill="#FFFFFF" rx="57.1732" ry="14.7529" style="stroke:#111111;stroke-width:0.5;"/><text fill="#111111" font-family="sans-serif" font-size="14" lengthAdjust="spacing" textLength="64" x="281.1632" y="61.0205">&#49464;&#49496; &#54540;&#47112;&#51060;</text></g><g id="elem_UC3"><ellipse cx="316.1625" cy="139.9985" fill="#FFFFFF" rx="69.4425" ry="16.2885" style="stroke:#111111;stroke-width:0.5;"/><text fill="#111111" font-family="sans-serif" font-size="14" lengthAdjust="spacing" textLength="92" x="268.0598" y="143.82">&#51452;&#49324;&#50948; &#54032;&#51221; &#49688;&#54665;</text></g><g id="elem_UC4"><ellipse cx="316.158" cy="295.0036" fill="#FFFFFF" rx="67.968" ry="15.9936" style="stroke:#111111;stroke-width:0.5;"/><text fill="#111111" font-family="sans-serif" font-size="14" lengthAdjust="spacing" textLength="88" x="269.1952" y="299.0134">&#49884;&#45208;&#47532;&#50724; &#50629;&#47196;&#46300;</text></g><g id="elem_UC5"><ellipse cx="316.1625" cy="361.9985" fill="#FFFFFF" rx="69.4425" ry="16.2885" style="stroke:#111111;stroke-width:0.5;"/><text fill="#111111" font-family="sans-serif" font-size="14" lengthAdjust="spacing" textLength="92" x="268.0598" y="365.82">&#48176;&#44221; &#51060;&#48120;&#51648; &#49373;&#49457;</text></g><g id="elem_UC6"><ellipse cx="316.1558" cy="431.0012" fill="#FFFFFF" rx="74.1558" ry="17.2312" style="stroke:#111111;stroke-width:0.5;"/><text fill="#111111" font-family="sans-serif" font-size="14" lengthAdjust="spacing" textLength="104" x="264.1558" y="434.2922">&#52880;&#47533;&#53552; &#52488;&#49345;&#54868; &#49373;&#49457;</text></g><!--entity Player--><g id="elem_Player"><ellipse cx="63.5" cy="110.26" fill="#F1F1F1" rx="8" ry="8" style="stroke:#111111;stroke-width:0.5;"/><path d="M63.5,118.26 L63.5,145.26 M50.5,126.26 L76.5,126.26 M63.5,145.26 L50.5,160.26 M63.5,145.26 L76.5,160.26 " fill="none" style="stroke:#111111;stroke-width:0.5;"/><text fill="#111111" font-family="sans-serif" font-size="14" lengthAdjust="spacing" textLength="41" x="43" y="175.2952">Player</text></g><!--entity Creator--><g id="elem_Creator"><ellipse cx="63.5" cy="265.26" fill="#F1F1F1" rx="8" ry="8" style="stroke:#111111;stroke-width:0.5;"/><path d="M63.5,273.26 L63.5,300.26 M50.5,281.26 L76.5,281.26 M63.5,300.26 L50.5,315.26 M63.5,300.26 L76.5,315.26 " fill="none" style="stroke:#111111;stroke-width:0.5;"/><text fill="#111111" font-family="sans-serif" font-size="14" lengthAdjust="spacing" textLength="115" x="6" y="330.2952">Scenario Creator</text></g><!--entity ImageAPI--><g id="elem_ImageAPI"><ellipse cx="63.5" cy="382.26" fill="#F1F1F1" rx="8" ry="8" style="stroke:#111111;stroke-width:0.5;"/><path d="M63.5,390.26 L63.5,417.26 M50.5,398.26 L76.5,398.26 M63.5,417.26 L50.5,432.26 M63.5,417.26 L76.5,432.26 " fill="none" style="stroke:#111111;stroke-width:0.5;"/><text fill="#111111" font-family="sans-serif" font-size="14" lengthAdjust="spacing" textLength="68" x="29.5" y="447.2952">Image API</text></g><!--link Player to UC1--><g id="link_Player_UC1"><path d="M84.17,146.12 C122.6,158.08 208.75,184.89 264.29,202.17 " fill="none" id="Player-UC1" style="stroke:#111111;stroke-width:1.0;"/></g><!--link Player to UC2--><g id="link_Player_UC2"><path d="M84.17,133.49 C126.41,119.5 226.29,86.43 279.82,68.7 " fill="none" id="Player-UC2" style="stroke:#111111;stroke-width:1.0;"/></g><!--link Player to UC3--><g id="link_Player_UC3"><path d="M84.17,140 C118.68,140 191.66,140 246.4,140 " fill="none" id="Player-UC3" style="stroke:#111111;stroke-width:1.0;"/></g><!--link Creator to UC4--><g id="link_Creator_UC4"><path d="M121.38,295 C158.93,295 208.32,295 247.83,295 " fill="none" id="Creator-UC4" style="stroke:#111111;stroke-width:1.0;"/></g><!--link ImageAPI to UC5--><g id="link_ImageAPI_UC5"><path d="M97.79,405.36 C139.73,396.99 212.34,382.51 262.01,372.6 " fill="none" id="ImageAPI-UC5" style="stroke:#111111;stroke-width:1.0;"/></g><!--link ImageAPI to UC6--><g id="link_ImageAPI_UC6"><path d="M97.79,414.52 C135.21,417.36 197.03,422.05 245.19,425.7 " fill="none" id="ImageAPI-UC6" style="stroke:#111111;stroke-width:1.0;"/></g><!--link UC2 to UC3--><g id="link_UC2_UC3"><path d="M316.16,72.24 C316.16,86.8 316.16,102.67 316.16,117.6 " fill="none" id="UC2-to-UC3" style="stroke:#111111;stroke-width:1.0;stroke-dasharray:7.0,7.0;"/><polygon fill="#111111" points="316.16,123.6,320.16,114.6,316.16,118.6,312.16,114.6,316.16,123.6" style="stroke:#111111;stroke-width:1.0;"/><text fill="#000000" font-family="sans-serif" font-size="13" lengthAdjust="spacing" textLength="60" x="274.66" y="102.7984">&#171;include&#187;</text></g><!--link UC2 to UC5--><g id="link_UC2_UC5"><path d="M278.39,68.31 C258.14,76.06 234.11,88.21 218,106 C180.81,147.07 183.64,168.01 173.61,222.5 C164.4,272.53 179.74,294.47 218,328 C230.41,338.88 240.787,344.4557 256.327,349.5357 " fill="none" id="UC2-to-UC5" style="stroke:#111111;stroke-width:1.0;stroke-dasharray:7.0,7.0;"/><polygon fill="#111111" points="262.03,351.4,254.7183,344.8015,257.2775,349.8464,252.2326,352.4056,262.03,351.4" style="stroke:#111111;stroke-width:1.0;"/><text fill="#000000" font-family="sans-serif" font-size="13" lengthAdjust="spacing" textLength="57" x="152" y="236.0684">&#171;extend&#187;</text></g><!--link UC2 to UC6--><g id="link_UC2_UC6"><path d="M277.49,68.13 C257.21,75.77 233.44,87.88 218,106 C175.24,156.16 183.59,182.35 173.61,247.5 C163.18,315.59 169.71,346.88 218,396 C228.91,407.09 237.9028,412.6911 252.5628,417.8711 " fill="none" id="UC2-to-UC6" style="stroke:#111111;stroke-width:1.0;stroke-dasharray:7.0,7.0;"/><polygon fill="#111111" points="258.22,419.87,251.0668,413.1001,253.5056,418.2042,248.4015,420.6431,258.22,419.87" style="stroke:#111111;stroke-width:1.0;"/><text fill="#000000" font-family="sans-serif" font-size="13" lengthAdjust="spacing" textLength="57" x="152" y="261.0684">&#171;extend&#187;</text></g><!--SRC=[ZP7BQjj058RtynG7TPsMNEn528ROa9958E1sKUXcAft88igC6OrnJ2cqle3JUc78pG4xE3HDDmbnInQX92-K6Rr3nfBSIe50jPh__xzpPiwHZriI90VXkHK9ZYVGbXvd9DZsM9KAkWD1XJgyxZ4NjgWVO2hvGErjL_0QSqhSvmAae2mm4JAPegg6eYwMPSD7cBQdpFMHf0XgIrFzaG0KkN1GnDrUp4UVSTSuardlKxgy5g1D0umRF7bIlU99VBRngX2y_b-tnK-qDdtQG6413I0-peAoZOmAZqD983LEX2Jd6RE-OzO0gvlhKHWf8mZvknEmYYWb2dYz0MygbC4xNXE15Gqs6zBIV_hguYfiJq2tHhhz2rwzP_hhUTYw1dtQKUCVKVUtfVbCKVjMTmOG7lJKkAj7Dmcpa66-t-dcfHws8UprzVWGT7SG7kqbw686_JPKpO6wkDI3Sz377NKsLFl3X5nAaseoUVXz3-PATNshVtvE7fsWkMS6k-dgrfVmv21BvwS_8buxpCr58wRLGaOj4fAiFzPBXCms7Xkv9pfFYEa1BmlJObY6bHMFsNxDmKBXNv2B0joLo9oqdy_wZm00]--></g></svg>